<svg xmlns="http://www.w3.org/2000/svg" version="1.1" xmlns:xlink="http://www.w3.org/1999/xlink" xmlns:svgjs="http://svgjs.dev/svgjs" width="2000" height="1500" viewBox="0 0 2000 1500"><rect width="2000" height="1500" fill="#ffffff"></rect><g transform="matrix(0.75,0,0,0.75,249.30756540569269,526.2780491803278)"><svg viewBox="0 0 205 61" data-background-color="#ffffff" preserveAspectRatio="xMidYMid meet" height="595" width="2000" xmlns="http://www.w3.org/2000/svg" xmlns:xlink="http://www.w3.org/1999/xlink"><g id="tight-bounds" transform="matrix(1,0,0,1,0.09463272788866561,0.08160000000000878)"><svg viewBox="0 0 204.81073454422264 60.8368" height="60.8368" width="204.81073454422264"><g><svg viewBox="0 0 204.81073454422264 60.8368" height="60.8368" width="204.81073454422264"><g><svg viewBox="0 0 204.81073454422264 60.8368" height="60.8368" width="204.81073454422264"><g id="textblocktransform"><svg viewBox="0 0 204.81073454422264 60.8368" height="60.8368" width="204.81073454422264" id="textblock"><g><svg viewBox="0 0 204.81073454422264 60.8368" height="60.8368" width="204.81073454422264"><g><svg><g></g><g></g></svg></g><g><svg><g></g><g><svg></svg></g></svg></g><g id="text-0"><svg viewBox="0 0 204.81073454422264 60.8368" height="60.8368" width="204.81073454422264"><g><svg xmlns="http://www.w3.org/2000/svg" xmlns:xlink="http://www.w3.org/1999/xlink" version="1.1" x="0" y="0" viewBox="15.192 11.647 69.309 76.748" enable-background="new 0 0 100 100" xml:space="preserve" height="60.8368" width="54.94003454422264" class="icon-cg-0" data-fill-palette-color="accent" id="cg-0"><g fill="#1ebbd7" data-fill-palette-color="accent"><path fill="#1ebbd7" d="M42.275 26.49l-7.75 7.993-4.012 4.012v30.654l11.089 7.584v0.066c0 2.206 1.825 4 4.068 4h8.647c2.243 0 4.068-1.794 4.068-4v-0.037l11.325-7.608V38.303L57.947 26.49H42.275zM43.992 59.012l5.051 4.922 0.013 4.059-5.967 2.876C39.208 64.122 43.315 59.674 43.992 59.012zM56.386 76.798c0 1.103-0.928 2-2.068 2H45.67c-1.141 0-2.068-0.897-2.068-2v-3.957l6.447-3.107 6.336 3.161V76.798zM57.022 70.978l-5.967-2.977-0.013-4.053 5.126-4.996C56.743 59.504 61.105 64.042 57.022 70.978zM67.711 39.129v28.959l-9.325 6.265v-1.78c5.267-8.24 0.171-14.041-0.787-15.013l0.144-0.14-0.285 0.001c-0.003-0.002-0.009-0.008-0.01-0.009l-0.008 0.009-14.664 0.06-0.033-0.037c-0.003 0.002-0.018 0.017-0.04 0.038l-0.281 0.001 0.142 0.138c-1.019 1.049-5.844 6.681-0.96 14.666v2.025l-9.089-6.216V39.322l3.437-3.437 6.304-6.501-0.472-0.95 1.791-0.89 0.469 0.945h12.106l0.468-0.944 1.791 0.888-0.447 0.903L67.711 39.129zM78.981 11.647H20.712c-3.043 0-5.52 2.243-5.52 5v66.748c0 2.757 2.476 5 5.52 5h58.269c3.044 0 5.52-2.243 5.52-5V16.647C84.501 13.891 82.025 11.647 78.981 11.647zM82.501 83.395c0 1.654-1.579 3-3.52 3H20.712c-1.941 0-3.52-1.346-3.52-3V16.647c0-1.654 1.579-3 3.52-3h58.269c1.94 0 3.52 1.346 3.52 3V83.395zM27.71 23.836v11.144l11.395-11.144H27.71zM29.71 25.836h4.49l-4.49 4.391V25.836zM72.418 34.917V23.773H61.023L72.418 34.917zM70.418 30.164l-4.49-4.391h4.49V30.164zM35.562 42.625l7.312-0.125-3.75 3.75L35.562 42.625zM61.25 46.25l-3.562-3.625L65 42.5 61.25 46.25zM58.407 28.434l-0.447 0.903-7.857 15.855-7.848-15.806-0.472-0.95 1.791-0.89 0.469 0.945 6.058 12.201 6.048-12.201 0.468-0.944L58.407 28.434z" data-fill-palette-color="accent"></path></g></svg></g><g transform="matrix(1,0,0,1,69.30323454422265,0)"><svg width="135.5075" viewBox="-0.15 -37.15 83.75 37.6" height="60.8368" data-palette-color="#1ebbd7"><path d="M21.4-21.7Q22.35-20.15 24.75-15.4L24.75-15.4Q25.1-14.7 25.88-13.2 26.65-11.7 27.1-10.9L27.1-10.9 27.7-9.8Q29.55-6.4 30.45-4.95 31.35-3.5 32.05-3.1L32.05-3.1 35.05-2.35 34.8 0 25.65 0Q24.7-0.1 23.85-1.5 23-2.9 21.5-6.2L21.5-6.2Q21.45-6.25 19.7-10.35L19.7-10.35Q17.9-14.65 16.75-17L16.75-17 11.9-12 10.75-3 14.85-2.3 14.6 0-0.15 0 0.15-2.3 3.7-3 7.75-34.1 4.3-34.7 4.55-37.15 19.2-37.15 18.9-34.7 14.75-34.1 12.5-16.95 28.4-34.1 25.05-34.75 25.3-37.15 36.85-37.15 36.55-34.7 33.5-34.15 21.4-21.7ZM61.2-14.85Q63.2-19.85 65.9-26L65.9-26Q69.5-34.55 70.55-37.15L70.55-37.15 83.6-37.15 83.3-34.7 78.95-34.1 78-3 82.3-2.3 82.15 0 66.35 0 66.55-2.35 71.15-2.95 72.4-24.35 72.95-34.25 69.35-25.55 58.25 0.05 54.75 0.45 51.1-24.95 49.65-34.25 47.55-24.7 42.35-3 47.65-2.3 47.45 0 33.35 0 33.6-2.3 37.65-3 45.65-34.1 40.95-34.7 41.3-37.15 55.85-37.15 58.9-14.9 59.5-10.35 61.2-14.85Z" opacity="1" transform="matrix(1,0,0,1,0,0)" fill="#1ebbd7" class="wordmark-text-0" data-fill-palette-color="primary"></path></svg></g></svg></g></svg></g></svg></g></svg></g></svg></g><defs></defs></svg><rect width="204.81073454422264" height="60.8368" fill="none" stroke="none" visibility="hidden"></rect></g></svg></g></svg>