<svg xmlns="http://www.w3.org/2000/svg" version="1.1" xmlns:xlink="http://www.w3.org/1999/xlink" xmlns:svgjs="http://svgjs.dev/svgjs" width="1000" height="530" viewBox="0 0 1000 530"><g transform="matrix(1,0,0,1,-0.6056348047761162,0.2900698412697693)"><svg viewBox="0 0 396 210" data-background-color="#ffffff" preserveAspectRatio="xMidYMid meet" height="530" width="1000" xmlns="http://www.w3.org/2000/svg" xmlns:xlink="http://www.w3.org/1999/xlink"><g id="tight-bounds" transform="matrix(1,0,0,1,0.24008861730862918,-0.1149333333333118)"><svg viewBox="0 0 395.52 210.22986666666662" height="210.22986666666662" width="395.52"><g><svg viewBox="0 0 395.52 210.22986666666662" height="210.22986666666662" width="395.52"><g><svg viewBox="0 0 395.52 210.22986666666662" height="210.22986666666662" width="395.52"><g id="textblocktransform"><svg viewBox="0 0 395.52 210.22986666666662" height="210.22986666666662" width="395.52" id="textblock"><g><svg viewBox="0 0 395.52 210.22986666666662" height="210.22986666666662" width="395.52"><path d="M394.594 45.09C392.735 23.268 387.435 17.202 387.435 17.202 371.165-5.274 350.86-0.43 332.619 2.8 300.414 2.931 268.339 7.731 236.208 10.306 168.767 10.699 100.749 4.24 33.643 20.17 27.339 25.058-6.54 21.13 1.121 47.883 3.129 59.013 10.456 71.364 10.232 81.576 11.236 83.366 12.631 79.263 13.226 81.838 15.309 88.778 18.711 85.504 21.501 89.607 17.614 100.561 20.403 109.683 23.062 119.241 18.377 121.728 12.371 120.55 9.675 128.799 9.396 134.778 7.89 133.643 6.235 133.381 5.026 133.207 2.59 133.861 2.999 135.738 4.394 142.154-1.594 145.863 2.162 152.148-0.422 158.956 3.948 164.848 3.353 172.224 3.278 173.708 3.687 174.974 4.338 175.323 7.22 177.199 3.018 180.865 3.464 184.837 33.029 211.983 65.104 193.217 95.394 205.699 103.259 196.97 97.346 208.797 100.489 206.964 102.943 204.826 104.728 213.685 107.499 208.666 107.927 207.226 107.276 203.822 108.8 204.477 109.6 204.826 110.307 204.738 110.418 202.731 110.586 199.719 109.117 201.596 108.726 200.025 112.947 192.082 111.906 210.98 115.866 210.194 115.68 207.881 114.528 204.564 116.889 205 119.232 201.683 119.306 198.934 121.389 206.397 121.463 208.012 121.835 209.146 122.43 209.932 128.938 201.814 135.409 212.813 142.233 209.146 146.417 205.131 150.433 211.329 154.672 209.801 156.16 208.579 157.666 206.397 159.098 210.063 176.632 210.849 195.319 207.575 211.943 210.194 256.364 205.306 303.835 212.202 350.674 205.742 361.719 203.255 373.192 199.719 383.958 196.883 383.958 196.883 392.679 189.114 392.679 154.199S394.538 123.649 394.817 95.848C395.096 68.047 396.398 66.912 394.538 45.09Z" opacity="1" fill="#24b0bc" data-fill-palette-color="tertiary"></path><g transform="matrix(1,0,0,1,55.76832,26.230666666666668)"><svg width="283.98335999999995" viewBox="5.050000190734863 -32 57.60000228881836 32" height="157.7685333333333" data-palette-color="#ffffff"><path d="M28.8-31.95L28.7-9.85 28.75 0 26.2 0 26.3-9.7 26.3-15.05 7.55-15.05 7.55-9.85 7.65 0 5.05 0 5.15-9.7 5.05-31.95 7.65-31.95 7.6-17.3 26.25-17.3 26.2-31.95 28.8-31.95ZM62.65-32L62.5-9.1 62.5 0 59.85 0 41.55-27.6 41.3-27.6 41.25-10.25 41.3 0 38.9 0 39-9.5 38.95-31.95 41.65-31.95 59.9-4.35 60.15-4.35 60.2-31.8 62.65-32Z" opacity="1" transform="matrix(1,0,0,1,0,0)" fill="#ffffff" class="wordmark-text-0" data-fill-palette-color="quaternary" id="text-0"></path></svg></g></svg></g></svg></g></svg></g><g></g></svg></g><defs></defs></svg><rect width="395.52" height="210.22986666666662" fill="none" stroke="none" visibility="hidden"></rect></g></svg></g></svg>